<svg preserveAspectRatio="none" width="100%" height="100%" overflow="visible" style="display: block;" viewBox="0 0 32 40" fill="none" xmlns="http://www.w3.org/2000/svg">
<path id="Vector" fill-rule="evenodd" clip-rule="evenodd" d="M16 40C16 40 32 29 32 16C32 7.16344 24.8366 0 16 0C7.1634 0 0 7.16344 0 16C0 29 16 40 16 40ZM14.5 12.5C14.5 11.9753 14.6555 11.6141 14.8848 11.3848C15.1141 11.1555 15.4753 11 16 11C16.5247 11 16.8859 11.1555 17.1152 11.3848C17.3445 11.6141 17.5 11.9753 17.5 12.5C17.5 13.0247 17.3445 13.3859 17.1152 13.6152C16.8859 13.8445 16.5247 14 16 14H15.5V14.5V15.6801L9.2905 18.546L9 18.6801V19V20.5V21H9.5H22.5H23V20.5V19V18.6801L22.7095 18.546L16.5 15.6801V14.9627C17.018 14.8825 17.4728 14.6718 17.8223 14.3223C18.2805 13.8641 18.5 13.2253 18.5 12.5C18.5 11.7747 18.2805 11.1359 17.8223 10.6777C17.3641 10.2195 16.7253 10 16 10C15.2747 10 14.6359 10.2195 14.1777 10.6777C13.7195 11.1359 13.5 11.7747 13.5 12.5H14.5ZM10 19.3199L16 16.5507L22 19.3199V20H10V19.3199Z" fill="var(--fill-0, black)"/>
</svg>
