<svg preserveAspectRatio="none" width="100%" height="100%" overflow="visible" style="display: block;" viewBox="0 0 20 16" fill="none" xmlns="http://www.w3.org/2000/svg">
<g id="Group">
<path id="Vector" fill-rule="evenodd" clip-rule="evenodd" d="M0 2.5C0 1.11929 1.11929 0 2.5 0H17.5C18.8807 0 20 1.11929 20 2.5V13.5C20 14.8807 18.8807 16 17.5 16H2.5C1.11929 16 0 14.8807 0 13.5V2.5ZM2.5 1C1.67157 1 1 1.67157 1 2.5V4H19V2.5C19 1.67157 18.3284 1 17.5 1H2.5ZM19 5H1V13.5C1 14.3284 1.67157 15 2.5 15H17.5C18.3284 15 19 14.3284 19 13.5V5ZM9 9H3V8H9V9ZM9 11H3V10H9V11Z" fill="var(--fill-0, black)"/>
</g>
</svg>
