<svg preserveAspectRatio="none" width="100%" height="100%" overflow="visible" style="display: block;" viewBox="0 0 26 26" fill="none" xmlns="http://www.w3.org/2000/svg">
<path id="Vector" fill-rule="evenodd" clip-rule="evenodd" d="M0 0H0.5H25.5H26V0.5V23.5V24H25.5H19.5616L11.6213 25.9851L11.5616 26H11.5H10.5H10V25.5V24H0.5H0V23.5V0.5V0ZM10 23V6H7V23H10ZM6 23V6H1V23H6ZM1 5H10V3.5V3H10.5H11.5H11.5616L11.6213 3.01493L19.5616 5H25V1H1V5ZM25 6H20V23H25V6ZM19 23.1096V5.89039L11.4384 4H11V10H13.5H14V10.5V18.5V19H13.5H11V25H11.4384L19 23.1096ZM11 18H13V11H11V18Z" fill="var(--fill-0, #888888)"/>
</svg>
