<svg preserveAspectRatio="none" width="100%" height="100%" overflow="visible" style="display: block;" viewBox="0 0 32 32" fill="none" xmlns="http://www.w3.org/2000/svg">
<g id="SVG">
<path id="Vector" d="M12.665 15.775L3.332 20.667C3.332 20.667 3.999 22.667 4.812 24.807C5.625 26.949 6.665 27.333 8.665 27.333H23.332C25.332 27.333 26.372 26.947 27.185 24.807C27.999 22.667 28.665 20.667 28.665 20.667L19.332 15.775M22.89 17.64C21.332 19.6 18.563 20.667 16.025 20.667C14.4853 20.6754 12.9667 20.3092 11.6 19.6M22.665 10C22.6758 10.8823 22.5114 11.758 22.1812 12.5763C21.851 13.3946 21.3617 14.1392 20.7416 14.767C20.1214 15.3947 19.3829 15.8931 18.5687 16.2333C17.7545 16.5735 16.8809 16.7486 15.9985 16.7486C15.1161 16.7486 14.2425 16.5735 13.4283 16.2333C12.6141 15.8931 11.8756 15.3947 11.2554 14.767C10.6353 14.1392 10.146 13.3946 9.81582 12.5763C9.48564 11.758 9.32119 10.8823 9.332 10C9.35348 8.24608 10.0653 6.57128 11.3132 5.33859C12.5611 4.1059 14.2444 3.41465 15.9985 3.41465C17.7526 3.41465 19.4359 4.1059 20.6838 5.33859C21.9317 6.57128 22.6435 8.24608 22.665 10Z" stroke="var(--stroke-0, black)"/>
</g>
</svg>
