<svg preserveAspectRatio="none" width="100%" height="100%" overflow="visible" style="display: block;" viewBox="0 0 24 24" fill="none" xmlns="http://www.w3.org/2000/svg">
<g id="sbp-m-color.svg">
<path id="Vector" d="M7.81486 12.0062L4.80313 13.6584L2 18.2671L13.395 12.0062H7.81486Z" fill="var(--fill-0, #874691)"/>
<path id="Vector_2" d="M16.4068 7.27328L13.395 8.92546L10.6049 13.5466L22 7.27328H16.4068Z" fill="var(--fill-0, #DA1844)"/>
<path id="Vector_3" d="M13.395 5.6087L10.6049 1V10.4658V13.5466V23L13.395 18.3913V5.6087Z" fill="var(--fill-0, #F9B229)"/>
<path id="Vector_4" d="M10.6049 1L13.395 5.6087L16.4068 7.27329H22L10.6049 1Z" fill="var(--fill-0, #F07F1A)"/>
<path id="Vector_5" d="M10.6049 10.4534V23L13.395 18.3913V15.0745L10.6049 10.4534Z" fill="var(--fill-0, #72B22C)"/>
<path id="Vector_6" d="M16.4068 16.7267L13.395 18.3913L10.6049 23L22 16.7267H16.4068Z" fill="var(--fill-0, #00743E)"/>
<path id="Vector_7" d="M2 5.73293V18.2671L4.80313 13.6584V10.3416L2 5.73293Z" fill="var(--fill-0, #5F5A94)"/>
<path id="Vector_8" d="M10.605 10.4534V10.4658L2 5.73293L4.80313 10.3416L16.4068 16.7267H22L10.605 10.4534Z" fill="var(--fill-0, #0D90CD)"/>
</g>
</svg>
