<svg preserveAspectRatio="none" width="100%" height="100%" overflow="visible" style="display: block;" viewBox="0 0 28 22" fill="none" xmlns="http://www.w3.org/2000/svg">
<path id="Vector" fill-rule="evenodd" clip-rule="evenodd" d="M11.4161 1.91605C10.843 2.48915 10.5 3.35025 10.5 4.5H9.5C9.5 3.14975 9.907 2.01085 10.7089 1.20895C11.5109 0.40704 12.6497 0 14 0C15.3503 0 16.4891 0.40704 17.2911 1.20895C18.093 2.01085 18.5 3.14975 18.5 4.5C18.5 5.85025 18.093 6.9891 17.2911 7.7911C16.5902 8.4919 15.6319 8.8912 14.5 8.9806V11.6751L27.7031 17.5431L28 17.6751V18V21.5V22H27.5H0.5H0V21.5V18V17.6751L0.29693 17.5431L13.5 11.6751V8.5V8H14C15.1497 8 16.0109 7.657 16.5839 7.0839C17.157 6.5109 17.5 5.64975 17.5 4.5C17.5 3.35025 17.157 2.48915 16.5839 1.91605C16.0109 1.34296 15.1497 1 14 1C12.8503 1 11.9891 1.34296 11.4161 1.91605ZM14 12.5472L1 18.3249V21H27V18.3249L14 12.5472Z" fill="var(--fill-0, #888888)"/>
</svg>
