<svg preserveAspectRatio="none" width="100%" height="100%" overflow="visible" style="display: block;" viewBox="0 0 24 24" fill="none" xmlns="http://www.w3.org/2000/svg">
<g id="SVG" clip-path="url(#clip0_0_24)">
<path id="Vector" d="M11.9965 23.9981C18.6219 23.9981 23.993 18.626 23.993 11.9991C23.993 5.37216 18.6219 0 11.9965 0C5.37101 0 0 5.37216 0 11.9991C0 18.626 5.37101 23.9981 11.9965 23.9981Z" fill="var(--fill-0, #FFC800)"/>
<path id="Vector_2" d="M13.3642 3.06415C12.6859 4.37523 11.1573 5.85971 9.13114 7.03004C7.10595 8.19956 5.05641 8.78264 3.58313 8.71477C2.76818 8.67702 1.79827 8.40393 1.52104 7.53772C1.30746 6.87088 1.56375 6.00967 2.18021 5.10239C2.27904 4.96082 2.38123 4.82175 2.48676 4.68436C3.4173 3.47214 4.59575 2.41909 6.0012 1.60815C7.40663 0.796365 8.90756 0.301261 10.4219 0.101041C10.5986 0.0750688 10.7703 0.0566367 10.937 0.0440789C12.03 -0.0363518 12.9028 0.172246 13.3735 0.689134C13.9899 1.36017 13.7387 2.34117 13.3642 3.06415ZM21.9929 5.35791C21.8295 5.11244 21.6595 4.87452 21.4819 4.64498C20.4233 3.27527 19.1074 2.1862 17.6442 1.40876C18.053 1.67768 18.383 2.01613 18.6191 2.42579C18.739 2.63355 18.8311 2.85388 18.8964 3.08426C19.146 3.96305 19.0044 4.99013 18.5338 6.06747C17.589 8.23476 15.3175 10.6072 12.2268 12.3925C9.13538 14.1777 5.94423 14.9602 3.5957 14.6946C2.42813 14.563 1.46911 14.1719 0.833396 13.5167C0.666722 13.345 0.521818 13.1557 0.402049 12.9471C0.161666 12.5307 0.0335189 12.0666 0.0083919 11.569C-0.0544265 13.247 0.234536 14.9535 0.905425 16.5753C1.0051 16.8174 1.11398 17.0578 1.23124 17.2958C1.23711 17.3059 1.24213 17.3159 1.24799 17.326C1.68269 18.0791 2.32511 18.6698 3.12499 19.0978C5.94592 20.6082 10.7192 20.0897 15.181 17.512C19.641 14.9359 22.4762 11.0622 22.5817 7.86358C22.6118 6.95884 22.4243 6.10936 21.9929 5.35791ZM17.1618 20.9392C13.0887 23.2916 8.66968 23.713 5.84708 22.3022C9.45951 24.4561 14.0988 24.6428 17.9985 22.3901C21.8991 20.1374 24.0567 16.025 23.9989 11.8178C23.8095 14.9694 21.2349 18.5867 17.1618 20.9392Z" fill="var(--fill-0, black)"/>
<path id="Vector_3" d="M11.9965 23.9981C18.6219 23.9981 23.993 18.626 23.993 11.9991C23.993 5.37216 18.6219 0 11.9965 0C5.37101 0 0 5.37216 0 11.9991C0 18.626 5.37101 23.9981 11.9965 23.9981Z" fill="url(#paint0_radial_0_24)"/>
</g>
<defs>
<radialGradient id="paint0_radial_0_24" cx="0" cy="0" r="1" gradientTransform="matrix(10.3883 -5.99995 6.19339 10.278 12.0116 12.0136)" gradientUnits="userSpaceOnUse">
<stop offset="0.5" stop-color="white" stop-opacity="0"/>
<stop offset="1" stop-color="white" stop-opacity="0.35"/>
</radialGradient>
<clipPath id="clip0_0_24">
<rect width="24" height="24" fill="white"/>
</clipPath>
</defs>
</svg>
