<svg preserveAspectRatio="none" width="100%" height="100%" overflow="visible" style="display: block;" viewBox="0 0 24 24" fill="none" xmlns="http://www.w3.org/2000/svg">
<g id="SVG" clip-path="url(#clip0_0_16)">
<path id="Vector" fill-rule="evenodd" clip-rule="evenodd" d="M13.4666 0.0447875C19.4221 0.757213 24 5.87768 24 11.9778C24 18.6123 18.6222 24 12 24C11.6 24 11.2444 23.9109 10.8889 23.9109V13.5363C10.8889 13.4917 10.9333 13.4028 11.0221 13.4028H12.4887C13.022 13.4028 13.4666 13.0019 13.4666 12.4231V0.0447875ZM13.2001 15.6291C12.4445 15.6291 11.7335 16.2524 11.7335 17.0984C11.7335 17.8553 12.3557 18.5677 13.2001 18.5677C14.0445 18.5676 14.7555 17.8998 14.6667 17.0984C14.6667 16.3415 14.0445 15.6291 13.2001 15.6291ZM16.7109 15.6291C15.9554 15.6292 15.2444 16.2524 15.2444 17.0984C15.2444 17.8553 15.8666 18.5676 16.7109 18.5677C17.5998 18.5677 18.1779 17.8553 18.178 17.0984C18.178 16.3414 17.5554 15.6291 16.7109 15.6291ZM20.2665 15.6291C19.511 15.6292 18.7999 16.2524 18.7999 17.0984C18.7999 17.8553 19.4221 18.5676 20.2665 18.5677C21.1109 18.5677 21.7335 17.8553 21.7335 17.0984C21.7335 16.3414 21.1109 15.6291 20.2665 15.6291Z" fill="var(--fill-0, #00B956)"/>
<path id="Vector_2" fill-rule="evenodd" clip-rule="evenodd" d="M11.9557 11.7995C11.9557 11.8441 11.9109 11.9335 11.822 11.9335H10.3555C9.91111 12.0226 9.46668 12.423 9.46658 12.9127V23.733C4.04438 22.6198 0 17.8551 0 12.0222C8.81212e-05 5.38779 5.37783 0 12 0L11.9557 11.7995ZM9.6888 6.94641C8.93328 6.94646 8.22222 7.56973 8.22222 8.4157C8.22223 9.17262 8.84441 9.88494 9.6888 9.88499C10.4888 9.88499 11.1554 9.17265 11.1554 8.4157C11.1554 7.65875 10.5332 6.94641 9.6888 6.94641Z" fill="var(--fill-0, #00B956)"/>
</g>
<defs>
<clipPath id="clip0_0_16">
<rect width="24" height="24" fill="white"/>
</clipPath>
</defs>
</svg>
