<svg preserveAspectRatio="none" width="100%" height="100%" overflow="visible" style="display: block;" viewBox="0 0 29.9999 22" fill="none" xmlns="http://www.w3.org/2000/svg">
<g id="Group">
<path id="Vector" d="M4.49521 5.33301H0V9.80756H4.49521V5.33301Z" fill="var(--fill-0, #FF3495)"/>
<path id="Vector_2" d="M9.74058 5.33461H14.9852V9.80913H9.74058V17.5254H16.7435V22H12.2483C8.38091 22 5.24537 18.8789 5.24536 15.0293V0H9.74058V5.33461Z" fill="var(--fill-0, black)"/>
<path id="Vector_3" d="M29.7044 22H17.4925V17.5254H29.7044V22Z" fill="var(--fill-0, black)"/>
<path id="Vector_4" d="M22.997 2.8384C26.8586 2.8384 29.9999 5.96569 29.9999 9.80917C29.9999 10.6883 29.8358 11.5296 29.5354 12.3053C28.5252 14.9201 25.975 16.7799 22.997 16.7799H17.4925V12.3053H22.997C24.3824 12.3053 25.5047 11.1882 25.5047 9.80917C25.5047 8.43009 24.3824 7.31296 22.997 7.31296C21.6116 7.31297 20.4893 8.4301 20.4893 9.80917H15.9941C15.9941 5.96529 19.1354 2.83841 22.997 2.8384Z" fill="var(--fill-0, black)"/>
</g>
</svg>
