<svg preserveAspectRatio="none" width="100%" height="100%" overflow="visible" style="display: block;" viewBox="0 0 24 24" fill="none" xmlns="http://www.w3.org/2000/svg">
<g id="SVG" clip-path="url(#clip0_0_14)">
<path id="Vector" fill-rule="evenodd" clip-rule="evenodd" d="M24 0V24H0V0H24ZM19.1149 16.4941C18.467 16.4942 17.9074 16.5874 17.446 16.769C16.9797 16.9555 16.6161 17.265 16.3658 17.6921C16.1253 18.0995 16.0027 18.6493 15.9929 19.3168V19.3807L16.0664 19.3855L15.9929 19.3903V19.4542C16.0027 20.1218 16.1252 20.6719 16.3658 21.0794C16.6161 21.5064 16.9797 21.8154 17.446 22.002C17.9074 22.1836 18.467 22.2768 19.1149 22.2768C19.7284 22.2768 20.2734 22.2131 20.6857 22.0904C21.1128 21.9627 21.4517 21.7567 21.7021 21.4719C21.972 21.1627 22.129 20.7699 22.1634 20.3134H20.8136V20.3086C20.7792 20.5294 20.6906 20.7108 20.5483 20.8482C20.4158 20.9758 20.234 21.0696 20.0082 21.1236C19.7873 21.1726 19.4584 21.2019 19.1149 21.2019C18.7566 21.2019 18.4425 21.1577 18.1726 21.0645C17.9125 20.9761 17.7061 20.8191 17.5637 20.6032C17.4165 20.3872 17.3427 20.0726 17.3427 19.6651V19.101C17.3427 18.6985 17.4165 18.3839 17.5637 18.163C17.711 17.9471 17.9125 17.7901 18.1726 17.7017C18.4376 17.6085 18.7566 17.5643 19.1149 17.5643C19.4584 17.5643 19.7873 17.594 20.0082 17.6431C20.234 17.6971 20.4158 17.7854 20.5483 17.918C20.6906 18.0554 20.7792 18.2368 20.8136 18.4576H22.1634C22.1241 18.0011 21.972 17.6131 21.7021 17.299C21.4566 17.0144 21.1127 16.8082 20.6857 16.6806C20.2734 16.5579 19.7284 16.4941 19.1149 16.4941ZM1.8457 1.8457V7.38335H3.20082V3.42134L4.92347 6.76971H6.15554L7.87873 3.42134V7.38335H9.22905V1.8457H7.30451L5.53711 5.50781L3.77504 1.8457H1.8457ZM15.9881 1.8457V2.95046H18.4032V7.38335H19.7536V2.95046H22.1639V1.8457H15.9881Z" fill="var(--fill-0, #FF0032)"/>
</g>
<defs>
<clipPath id="clip0_0_14">
<rect width="24" height="24" fill="white"/>
</clipPath>
</defs>
</svg>
