<svg preserveAspectRatio="none" width="100%" height="100%" overflow="visible" style="display: block;" viewBox="0 0 24 24" fill="none" xmlns="http://www.w3.org/2000/svg">
<g id="SVG">
<path id="Vector" d="M12 1C13.1306 1.00003 14.1437 1.42751 14.8701 2.22656C15.5937 3.02275 16 4.15036 16 5.5V7H21.0371L20.999 7.53516L19.9658 22H4.03418L3.00098 7.53516L2.96289 7H8V5.5C8 4.15032 8.40622 3.02276 9.12988 2.22656C9.85632 1.42752 10.8694 1 12 1ZM4.96582 21H19.0342L19.9629 8H16V12H15V8H9V12H8V8H4.03711L4.96582 21ZM12 2C11.1308 2 10.3937 2.32274 9.87012 2.89844C9.34395 3.47723 9 4.34984 9 5.5V7H15V5.5C15 4.34988 14.656 3.47723 14.1299 2.89844C13.6064 2.32273 12.8692 2.00003 12 2Z" fill="var(--fill-0, black)"/>
</g>
</svg>
