<svg preserveAspectRatio="none" width="100%" height="100%" overflow="visible" style="display: block;" viewBox="0 0 12.33 12.33" fill="none" xmlns="http://www.w3.org/2000/svg">
<path id="Vector" d="M7.26 4.32C7.08 4.15 6.825 4.065 6.495 4.065H5.19V5.97H6.495C6.825 5.97 7.08 5.8875 7.26 5.7225C7.44 5.5575 7.53 5.325 7.53 5.025C7.53 4.725 7.44 4.49 7.26 4.32ZM11.385 1.74V3.75L12.27 5.85C12.35 6.05 12.35 6.25 12.27 6.45L11.385 8.58V10.56C11.385 10.78 11.31 10.965 11.16 11.115C11.01 11.265 10.825 11.34 10.605 11.34H8.685L6.48 12.27C6.28 12.35 6.08 12.35 5.88 12.27L3.63 11.34H1.785C1.575 11.34 1.3925 11.265 1.2375 11.115C1.0825 10.965 1.005 10.78 1.005 10.56V8.745L0.06 6.48C-0.02 6.28 -0.02 6.08 0.06 5.88L1.005 3.57V1.74C1.005 1.53 1.0825 1.3475 1.2375 1.1925C1.3925 1.0375 1.575 0.96 1.785 0.96H3.69L5.865 0.06C6.055 -0.02 6.25 -0.02 6.45 0.06L8.64 0.96H10.605C10.825 0.96 11.01 1.0375 11.16 1.1925C11.31 1.3475 11.385 1.53 11.385 1.74ZM8.385 4.005C8.215 3.715 7.98 3.49 7.68 3.33C7.38 3.17 7.025 3.09 6.615 3.09H4.095V9.225H8.16V8.235H5.19V6.93H6.615C7.225 6.93 7.7125 6.7575 8.0775 6.4125C8.4425 6.0675 8.625 5.605 8.625 5.025C8.625 4.635 8.545 4.295 8.385 4.005Z" fill="var(--fill-0, #F93C00)"/>
</svg>
