<svg preserveAspectRatio="none" width="100%" height="100%" overflow="visible" style="display: block;" viewBox="0 0 22 19.0537" fill="none" xmlns="http://www.w3.org/2000/svg">
<path id="Vector" d="M16.5 0C19.8438 0 21.9999 2.68163 22 5.76172C22 9.8594 19.2274 13.1723 16.5723 15.415C15.2338 16.5455 13.8977 17.4272 12.8975 18.0264C12.3967 18.3263 11.9785 18.5565 11.6846 18.7119C11.5378 18.7896 11.4218 18.8486 11.3418 18.8887C11.3018 18.9087 11.2704 18.9242 11.249 18.9346C11.2385 18.9397 11.2303 18.9435 11.2246 18.9463C11.2217 18.9477 11.2194 18.9494 11.2178 18.9502L11.2158 18.9512L11 18.5L11.2148 18.9512L11 19.0537L10.7852 18.9512L11 18.5L10.7842 18.9512L10.7822 18.9502C10.7806 18.9494 10.7783 18.9477 10.7754 18.9463C10.7697 18.9435 10.7615 18.9397 10.751 18.9346C10.7296 18.9242 10.6982 18.9087 10.6582 18.8887C10.5782 18.8486 10.4622 18.7896 10.3154 18.7119C10.0215 18.5565 9.6033 18.3263 9.1025 18.0264C8.1023 17.4272 6.76618 16.5455 5.42773 15.415C2.77262 13.1723 0 9.8594 0 5.76172C0.00013 2.68163 2.15616 0 5.5 0C6.76422 0 8.00364 0.5523 8.92383 1.36621C9.7114 2.06298 10.3073 2.99285 10.46 4H11.54C11.6927 2.99285 12.2886 2.06298 13.0762 1.36621C13.9964 0.5523 15.2358 0 16.5 0ZM16.5 1C15.5182 1 14.5076 1.43565 13.7393 2.11523C12.9676 2.79783 12.5 3.67095 12.5 4.5V5H9.5V4.5C9.5 3.67095 9.0324 2.79783 8.26074 2.11523C7.49243 1.43565 6.48178 1 5.5 1C2.79604 1 1.00013 3.14205 1 5.76172C1 9.4018 3.47753 12.4586 6.07227 14.6504C7.35862 15.7369 8.64781 16.5889 9.6162 17.1689C10.0997 17.4586 10.502 17.6799 10.7822 17.8281C10.8657 17.8723 10.9393 17.9084 11 17.9395C11.0607 17.9084 11.1343 17.8723 11.2178 17.8281C11.498 17.6799 11.9003 17.4586 12.3838 17.1689C13.3522 16.5889 14.6414 15.7369 15.9277 14.6504C18.5225 12.4586 21 9.4018 21 5.76172C20.9999 3.14205 19.204 1 16.5 1Z" fill="var(--fill-0, black)"/>
</svg>
