<svg preserveAspectRatio="none" width="100%" height="100%" overflow="visible" style="display: block;" viewBox="0 0 24 24" fill="none" xmlns="http://www.w3.org/2000/svg">
<g id="SVG">
<path id="Vector" d="M11.999 2C15.0372 2 17.499 4.46186 17.499 7.5C17.499 9.22462 16.7043 10.763 15.4619 11.7715L21.7314 15.0576L22.1074 15.2549L21.9736 15.6582L21.9727 15.6592L21.9717 15.6631C21.9707 15.666 21.9696 15.6704 21.9678 15.6758C21.9639 15.6874 21.9577 15.7053 21.9502 15.7275C21.9352 15.7722 21.913 15.8378 21.8848 15.9209C21.828 16.0876 21.7455 16.3263 21.6445 16.6152C21.4424 17.1934 21.1634 17.9744 20.8564 18.7822C20.5318 19.6363 20.1289 20.2294 19.5332 20.584C18.9516 20.93 18.2643 21 17.499 21H6.49902C5.73397 21 5.04645 20.9308 4.46484 20.585C3.86914 20.2306 3.4662 19.6377 3.1416 18.7832C2.83465 17.9751 2.55563 17.1944 2.35352 16.6162C2.25245 16.3271 2.17005 16.0877 2.11328 15.9209C2.08499 15.8378 2.06287 15.7722 2.04785 15.7275C2.04036 15.7053 2.03416 15.6874 2.03027 15.6758C2.02847 15.6704 2.02734 15.666 2.02637 15.6631L2.02539 15.6592L2.02441 15.6582L1.89062 15.2549L2.2666 15.0576L8.53516 11.7715C7.29325 10.763 6.49902 9.2242 6.49902 7.5C6.49902 4.46202 8.96111 2.00027 11.999 2ZM14.501 12.3975C13.7504 12.7816 12.9003 13 11.999 13C11.0975 12.9999 10.2468 12.7819 9.49609 12.3975L3.10938 15.7432C3.16005 15.8911 3.22318 16.0753 3.29688 16.2861C3.4972 16.8592 3.77329 17.6314 4.07617 18.4287C4.36141 19.1796 4.65421 19.5343 4.97559 19.7256C5.31125 19.9252 5.76452 20 6.49902 20H17.499C18.2332 20 18.6867 19.9244 19.0225 19.7246C19.3441 19.533 19.6367 19.178 19.9219 18.4277C20.2247 17.6308 20.5009 16.8581 20.7012 16.2852C20.7747 16.0748 20.8371 15.8909 20.8877 15.7432L14.501 12.3975ZM11.999 3C9.51339 3.00027 7.49902 5.01431 7.49902 7.5C7.49902 9.98476 9.51346 11.9997 11.999 12C14.4848 12 16.499 9.98492 16.499 7.5C16.499 5.01414 14.4849 3 11.999 3Z" fill="var(--fill-0, black)"/>
</g>
</svg>
